<svg xmlns="http://www.w3.org/2000/svg" version="1.1" xmlns:xlink="http://www.w3.org/1999/xlink" xmlns:svgjs="http://svgjs.dev/svgjs" width="1500" height="1500" viewBox="0 0 1500 1500"><rect width="1500" height="1500" fill="#ffffff"></rect><g transform="matrix(0.6666666666666666,0,0,0.6666666666666666,249.85778443113782,249.85778443113765)"><svg viewBox="0 0 334 334" data-background-color="#ffffff" preserveAspectRatio="xMidYMid meet" height="1500" width="1500" xmlns="http://www.w3.org/2000/svg" xmlns:xlink="http://www.w3.org/1999/xlink"><g id="tight-bounds" transform="matrix(1,0,0,1,0.04749999999998522,0.04750000000001364)"><svg viewBox="0 0 333.90454557049503 333.90454557049503" height="333.90454557049503" width="333.90454557049503"><g><svg></svg></g><g><svg viewBox="0 0 333.90454557049503 333.90454557049503" height="333.90454557049503" width="333.90454557049503"><g><path d="M0 166.952c0-92.205 74.747-166.952 166.952-166.952 92.205 0 166.952 74.747 166.953 166.952 0 92.205-74.747 166.952-166.953 166.953-92.205 0-166.952-74.747-166.952-166.953zM166.952 327.19c88.497 0 160.238-71.741 160.238-160.238 0-88.497-71.741-160.238-160.238-160.238-88.497 0-160.238 71.741-160.238 160.238 0 88.497 71.741 160.238 160.238 160.238z" data-fill-palette-color="tertiary" fill="#000000" stroke="transparent"></path><ellipse rx="160.27418187383762" ry="160.27418187383762" cx="166.95227278524752" cy="166.95227278524752" fill="#000000" stroke="transparent" stroke-width="0" fill-opacity="1" data-fill-palette-color="tertiary"></ellipse></g><g transform="matrix(1,0,0,1,71.42417674334352,71.17305217166896)"><svg viewBox="0 0 191.05619208380799 191.55844122715712" height="191.55844122715712" width="191.05619208380799"><g><svg viewBox="0 0 191.05619208380799 191.55844122715712" height="191.55844122715712" width="191.05619208380799"><g><svg viewBox="0 0 213.15844122715714 213.71879283542648" height="191.55844122715712" width="191.05619208380799"><g transform="matrix(1,0,0,1,0,82.75479946671527)"><svg viewBox="0 0 213.15844122715714 130.96399336871121" height="130.96399336871121" width="213.15844122715714"><g id="textblocktransform"><svg viewBox="0 0 213.15844122715714 130.96399336871121" height="130.96399336871121" width="213.15844122715714" id="textblock"><g><svg viewBox="0 0 213.15844122715714 83.0649321741128" height="83.0649321741128" width="213.15844122715714"><g transform="matrix(1,0,0,1,0,0)"><svg width="213.15844122715714" viewBox="3.1 -35.95 94.05000000000001 36.650000000000006" height="83.0649321741128" data-palette-color="#ffffff"><path d="M4.2 0Q3.45 0 3.33-0.33 3.2-0.65 3.25-1.7L3.25-1.7Q3.25-3.35 3.2-4.85L3.2-4.85 3.1-11Q3.1-12.4 3.2-13.93 3.3-15.45 3.35-16.65L3.35-16.65Q3.6-20.25 3.6-21.7L3.6-21.7 3.7-31.1 3.65-33.8Q3.65-35.55 3.9-35.8L3.9-35.8Q4.05-35.95 4.25-35.95L4.25-35.95Q4.35-35.95 4.6-35.88 4.85-35.8 5.15-35.8L5.15-35.8 6.7-35.85Q7.65-35.85 8.1-35.75L8.1-35.75Q8.55-35.6 8.75-35.02 8.95-34.45 9.1-33.73 9.25-33 9.35-32.6L9.35-32.6Q9.6-31.25 10.53-28.85 11.45-26.45 12.3-24.65L12.3-24.65Q13-23.45 14.18-20.78 15.35-18.1 15.85-16.55L15.85-16.55Q16.15-15.75 16.7-14.55L16.7-14.55 17.45-12.75 18.5-10.4Q19.95-13.25 20.6-14.55L20.6-14.55 23.85-21.05 26.1-25.55Q27.85-29.15 28.45-30.2L28.45-30.2Q29.4-32.15 30.45-33.83 31.5-35.5 31.95-35.5L31.95-35.5Q32.35-35.5 32.35-34.85L32.35-34.85Q32.35-34.25 32.1-33.25L32.1-33.25 31.9-32Q31.7-30.65 31.7-20L31.7-20Q31.7-17.65 31.58-14.3 31.45-10.95 31.35-9.85L31.35-9.85Q31.25-8.55 31.25-6L31.25-6 31.3-1.15 31.3-0.9Q31.3-0.3 31-0.4L31-0.4 30.9-0.4Q30.65-0.4 30.33-0.35 30-0.3 29.65-0.3L29.65-0.3Q29.45-0.35 29.38-0.55 29.3-0.75 29.3-1.25L29.3-1.25 29.3-4.2Q29.3-9.3 29.4-10.2L29.4-10.2Q29.5-11.25 29.63-14.1 29.75-16.95 29.75-18.7L29.75-18.7Q29.7-19.15 29.8-21.5L29.8-21.5 29.85-23.3 29.95-26.9Q29.6-26.4 29.35-25.85L29.35-25.85Q28.85-25 28.4-24L28.4-24 27.9-23Q27.05-21.35 25.95-19.13 24.85-16.9 24.05-15.35L24.05-15.35Q23.15-13.55 21.78-10.73 20.4-7.9 19.65-6.25L19.65-6.25Q18.35-3.2 18.15-3.2L18.15-3.2Q18-3.2 17.7-3.7 17.4-4.2 17.3-4.35L17.3-4.35Q16.95-4.9 16.2-6.68 15.45-8.45 15-9.8L15-9.8Q14.7-10.7 12.4-14.85L12.4-14.85Q10.6-18.3 10.55-18.45L10.55-18.45Q10.05-19.45 9.2-21.8L9.2-21.8Q8.65-23.05 8.35-24L8.35-24 8.25-21.8 8.15-18.4 8.05-8.55 8-0.75Q8-0.3 7.75-0.2 7.5-0.1 7.15-0.13 6.8-0.15 6.6-0.15L6.6-0.15 5.5-0.1Q4.6 0 4.2 0L4.2 0ZM51 0.7Q48.7 0.7 45.52-0.75 42.35-2.2 39.8-6.15 37.25-10.1 37.25-16.9L37.25-16.9Q37.25-24.8 39.65-29.03 42.05-33.25 45.05-34.6 48.05-35.95 50.75-35.95L50.75-35.95Q55.45-35.95 57.82-33.6 60.2-31.25 61.25-29.15L61.25-29.15Q61.45-28.65 61.65-28.1 61.85-27.55 62-27.15L62-27.15Q62.05-27.05 62.05-26.9L62.05-26.9Q62.05-26.75 61.92-26.65 61.8-26.55 61.6-26.48 61.4-26.4 61.15-26.25L61.15-26.25 60-25.65Q58.25-24.7 57.55-24.4L57.55-24.4Q56.45-23.75 55.75-23.25L55.75-23.25 54.8-22.6Q54.5-22.35 53.85-21.95L53.85-21.95Q53.65-21.8 53.45-21.8L53.45-21.8Q53.15-21.7 53.05-21.7L53.05-21.7Q52.8-21.7 52.62-22.05 52.45-22.4 52.3-22.6L52.3-22.6Q52.2-22.75 51.9-23.2 51.6-23.65 51.17-23.98 50.75-24.3 50.2-24.3L50.2-24.3Q48.7-24.3 47.85-21.98 47-19.65 47-17.1L47-17.1Q47-14.75 47.12-13.33 47.25-11.9 47.92-10.7 48.6-9.5 50.15-9.5L50.15-9.5Q52.15-9.5 52.95-12L52.95-12Q53.3-13.05 53.3-14.5L53.3-14.5 52.3-14.7Q51.1-14.9 50.55-14.95L50.55-14.95Q49.6-15.05 49.6-15.65L49.6-15.65Q49.6-16 50-17.6L50-17.6Q50.25-18.4 50.5-18.55 50.75-18.7 51.25-18.65L51.25-18.65Q51.5-18.6 52.42-18.48 53.35-18.35 55.35-18.15L55.35-18.15 58.1-17.75Q60.9-17.35 61.85-17.3L61.85-17.3Q62.7-17.25 63-16.4L63-16.4Q63.1-15.9 63.05-15.55L63.05-15.55Q62.7-9.35 60.72-5.73 58.75-2.1 56.15-0.7 53.55 0.7 51 0.7L51 0.7ZM69 0Q68.25 0 68.12-0.33 68-0.65 68.05-1.7L68.05-1.7Q68.05-3.35 68-4.85L68-4.85 67.9-11Q67.9-12.4 68-13.93 68.1-15.45 68.15-16.65L68.15-16.65Q68.4-20.25 68.4-21.7L68.4-21.7 68.5-31.1 68.45-33.8Q68.45-35.55 68.7-35.8L68.7-35.8Q68.85-35.95 69.05-35.95L69.05-35.95Q69.15-35.95 69.4-35.88 69.65-35.8 69.95-35.8L69.95-35.8 71.5-35.85Q72.45-35.85 72.9-35.75L72.9-35.75Q73.35-35.6 73.55-35.02 73.75-34.45 73.9-33.73 74.05-33 74.15-32.6L74.15-32.6Q74.4-31.25 75.32-28.85 76.25-26.45 77.1-24.65L77.1-24.65Q77.8-23.45 78.97-20.78 80.15-18.1 80.65-16.55L80.65-16.55Q80.95-15.75 81.5-14.55L81.5-14.55 82.25-12.75 83.3-10.4Q84.75-13.25 85.4-14.55L85.4-14.55 88.65-21.05 90.9-25.55Q92.65-29.15 93.25-30.2L93.25-30.2Q94.2-32.15 95.25-33.83 96.3-35.5 96.75-35.5L96.75-35.5Q97.15-35.5 97.15-34.85L97.15-34.85Q97.15-34.25 96.9-33.25L96.9-33.25 96.7-32Q96.5-30.65 96.5-20L96.5-20Q96.5-17.65 96.37-14.3 96.25-10.95 96.15-9.85L96.15-9.85Q96.05-8.55 96.05-6L96.05-6 96.1-1.15 96.1-0.9Q96.1-0.3 95.8-0.4L95.8-0.4 95.7-0.4Q95.45-0.4 95.12-0.35 94.8-0.3 94.45-0.3L94.45-0.3Q94.25-0.35 94.17-0.55 94.1-0.75 94.1-1.25L94.1-1.25 94.1-4.2Q94.1-9.3 94.2-10.2L94.2-10.2Q94.3-11.25 94.42-14.1 94.55-16.95 94.55-18.7L94.55-18.7Q94.5-19.15 94.6-21.5L94.6-21.5 94.65-23.3 94.75-26.9Q94.4-26.4 94.15-25.85L94.15-25.85Q93.65-25 93.2-24L93.2-24 92.7-23Q91.85-21.35 90.75-19.13 89.65-16.9 88.85-15.35L88.85-15.35Q87.95-13.55 86.57-10.73 85.2-7.9 84.45-6.25L84.45-6.25Q83.15-3.2 82.95-3.2L82.95-3.2Q82.8-3.2 82.5-3.7 82.2-4.2 82.1-4.35L82.1-4.35Q81.75-4.9 81-6.68 80.25-8.45 79.8-9.8L79.8-9.8Q79.5-10.7 77.2-14.85L77.2-14.85Q75.4-18.3 75.35-18.45L75.35-18.45Q74.85-19.45 74-21.8L74-21.8Q73.45-23.05 73.15-24L73.15-24 73.05-21.8 72.95-18.4 72.85-8.55 72.8-0.75Q72.8-0.3 72.55-0.2 72.3-0.1 71.95-0.13 71.6-0.15 71.4-0.15L71.4-0.15 70.3-0.1Q69.4 0 69 0L69 0Z" opacity="1" transform="matrix(1,0,0,1,0,0)" fill="#ffffff" class="wordmark-text-0" data-fill-palette-color="quaternary" id="text-0"></path></svg></g></svg></g><g transform="matrix(1,0,0,1,0,102.67456910204865)"><svg viewBox="0 0 213.15844122715714 28.28942426666256" height="28.28942426666256" width="213.15844122715714"><g transform="matrix(1,0,0,1,0,0)"><svg width="213.15844122715714" viewBox="4.15 -35.4 269.72 35.8" height="28.28942426666256" data-palette-color="#ffffff"><path d="M21.3 0Q20.9 0 20.75-0.4L20.75-0.4 14.55-15.85Q14.5-16 14.35-16L14.35-16 7.9-16Q7.7-16 7.7-15.8L7.7-15.8 7.7-0.5Q7.7 0 7.2 0L7.2 0 4.65 0Q4.15 0 4.15-0.5L4.15-0.5 4.15-34.5Q4.15-35 4.65-35L4.65-35 15.25-35Q17.85-35 19.88-33.8 21.9-32.6 23.03-30.4 24.15-28.2 24.15-25.35L24.15-25.35Q24.15-21.95 22.5-19.55 20.85-17.15 18-16.35L18-16.35Q17.8-16.25 17.9-16.1L17.9-16.1 24.35-0.6 24.4-0.4Q24.4 0 23.95 0L23.95 0 21.3 0ZM7.9-31.9Q7.7-31.9 7.7-31.7L7.7-31.7 7.7-19.05Q7.7-18.85 7.9-18.85L7.9-18.85 14.8-18.85Q17.4-18.85 19-20.65 20.6-22.45 20.6-25.35L20.6-25.35Q20.6-28.3 19-30.1 17.4-31.9 14.8-31.9L14.8-31.9 7.9-31.9ZM38.4-2.7Q40.3-2.7 41.67-3.68 43.05-4.65 43.65-6.3L43.65-6.3Q43.8-6.75 44.25-6.65L44.25-6.65 46.55-6.2Q46.8-6.15 46.87-5.98 46.95-5.8 46.9-5.6L46.9-5.6Q46.05-2.8 43.8-1.2 41.55 0.4 38.35 0.4L38.35 0.4Q34.7 0.4 32.4-1.53 30.1-3.45 29.55-6.75L29.55-6.75Q29.35-8 29.3-9.7 29.25-11.4 29.25-12.53 29.25-13.65 29.25-14.1L29.25-14.1Q29.25-16.65 29.45-18.25L29.45-18.25Q29.85-21.6 32.22-23.65 34.6-25.7 38.2-25.7L38.2-25.7Q42.05-25.7 44.45-23.5 46.85-21.3 47.15-17.7L47.15-17.7Q47.3-16.05 47.3-11.65L47.3-11.65Q47.3-11.15 46.8-11.15L46.8-11.15 33-11.15Q32.8-11.15 32.8-10.95L32.8-10.95Q32.8-9.4 32.9-7.5L32.9-7.5Q33.15-5.35 34.62-4.03 36.1-2.7 38.4-2.7L38.4-2.7ZM38.25-22.6Q36-22.6 34.57-21.28 33.15-19.95 32.9-17.8L32.9-17.8Q32.8-15.7 32.8-14.3L32.8-14.3Q32.8-14.1 33-14.1L33-14.1 43.55-14.1Q43.75-14.1 43.75-14.3L43.75-14.3Q43.75-15.75 43.55-17.75L43.55-17.75Q43.3-19.9 41.87-21.25 40.45-22.6 38.25-22.6L38.25-22.6ZM63.24-23Q63.24-22.5 62.74-22.5L62.74-22.5 57.99-22.5Q57.8-22.5 57.8-22.3L57.8-22.3 57.8-7.3Q57.8-4.95 58.72-4.03 59.64-3.1 61.7-3.1L61.7-3.1 62.55-3.1Q63.05-3.1 63.05-2.6L63.05-2.6 63.05-0.5Q63.05 0 62.55 0L62.55 0 60.99 0.05Q57.74 0.05 56.05-1.28 54.34-2.6 54.34-6.2L54.34-6.2 54.34-22.3Q54.34-22.5 54.14-22.5L54.14-22.5 51.64-22.5Q51.14-22.5 51.14-23L51.14-23 51.14-24.8Q51.14-25.3 51.64-25.3L51.64-25.3 54.14-25.3Q54.34-25.3 54.34-25.5L54.34-25.5 54.34-31.2Q54.34-31.7 54.84-31.7L54.84-31.7 57.3-31.7Q57.8-31.7 57.8-31.2L57.8-31.2 57.8-25.5Q57.8-25.3 57.99-25.3L57.99-25.3 62.74-25.3Q63.24-25.3 63.24-24.8L63.24-24.8 63.24-23ZM82.29-24.8Q82.29-25.3 82.79-25.3L82.79-25.3 85.34-25.3Q85.84-25.3 85.84-24.8L85.84-24.8 85.84-0.5Q85.84 0 85.34 0L85.34 0 82.79 0Q82.29 0 82.29-0.5L82.29-0.5 82.29-2.45Q82.29-2.6 82.22-2.6 82.14-2.6 82.04-2.5L82.04-2.5Q80.29 0.35 76.24 0.35L76.24 0.35Q72.84 0.35 70.69-1.65 68.54-3.65 68.54-7.45L68.54-7.45 68.54-24.8Q68.54-25.3 69.04-25.3L69.04-25.3 71.59-25.3Q72.09-25.3 72.09-24.8L72.09-24.8 72.09-8.35Q72.09-5.7 73.39-4.23 74.69-2.75 77.04-2.75L77.04-2.75Q79.49-2.75 80.89-4.33 82.29-5.9 82.29-8.55L82.29-8.55 82.29-24.8ZM102.24-25.55Q103.74-25.55 104.79-24.95L104.79-24.95Q105.14-24.8 105.04-24.35L105.04-24.35 104.44-21.75Q104.39-21.25 103.84-21.45L103.84-21.45Q103.04-21.8 102.09-21.8L102.09-21.8 101.49-21.75Q99.29-21.7 97.84-19.85 96.39-18 96.39-15.35L96.39-15.35 96.39-0.5Q96.39 0 95.89 0L95.89 0 93.34 0Q92.84 0 92.84-0.5L92.84-0.5 92.84-24.8Q92.84-25.3 93.34-25.3L93.34-25.3 95.89-25.3Q96.39-25.3 96.39-24.8L96.39-24.8 96.39-21.55Q96.39-21.4 96.47-21.4 96.54-21.4 96.59-21.5L96.59-21.5Q97.44-23.4 98.87-24.48 100.29-25.55 102.24-25.55L102.24-25.55ZM119.09-25.65Q122.59-25.65 124.61-23.43 126.64-21.2 126.64-17.35L126.64-17.35 126.64-0.5Q126.64 0 126.14 0L126.14 0 123.59 0Q123.09 0 123.09-0.5L123.09-0.5 123.09-16.85Q123.09-19.45 121.74-21 120.39-22.55 118.04-22.55L118.04-22.55Q115.69-22.55 114.26-20.98 112.84-19.4 112.84-16.75L112.84-16.75 112.84-0.5Q112.84 0 112.34 0L112.34 0 109.79 0Q109.29 0 109.29-0.5L109.29-0.5 109.29-24.8Q109.29-25.3 109.79-25.3L109.79-25.3 112.34-25.3Q112.84-25.3 112.84-24.8L112.84-24.8 112.84-22.85Q112.84-22.75 112.91-22.7 112.99-22.65 113.09-22.75L113.09-22.75Q115.04-25.65 119.09-25.65L119.09-25.65ZM151.88 0.4Q148.23 0.4 145.88-1.58 143.53-3.55 143.03-6.9L143.03-6.9Q142.73-9.4 142.73-12.7L142.73-12.7Q142.73-16 143.03-18.4L143.03-18.4Q143.48-21.7 145.86-23.7 148.23-25.7 151.88-25.7L151.88-25.7Q155.53-25.7 157.91-23.7 160.28-21.7 160.73-18.4L160.73-18.4Q161.03-16.4 161.03-12.7L161.03-12.7Q161.03-8.9 160.73-6.9L160.73-6.9Q160.28-3.55 157.91-1.58 155.53 0.4 151.88 0.4L151.88 0.4ZM151.88-2.7Q154.03-2.7 155.51-4.03 156.98-5.35 157.28-7.55L157.28-7.55Q157.48-9.4 157.48-12.65L157.48-12.65Q157.48-15.95 157.28-17.75L157.28-17.75Q157.03-19.95 155.56-21.28 154.08-22.6 151.88-22.6L151.88-22.6Q149.68-22.6 148.23-21.28 146.78-19.95 146.48-17.75L146.48-17.75Q146.28-15.95 146.28-12.65L146.28-12.65Q146.28-9.35 146.48-7.55L146.48-7.55Q146.73-5.35 148.21-4.03 149.68-2.7 151.88-2.7L151.88-2.7ZM176.28-32.1Q173.98-32.1 173.08-30.85 172.18-29.6 172.18-26.75L172.18-26.75 172.18-25.5Q172.18-25.3 172.38-25.3L172.38-25.3 177.08-25.3Q177.58-25.3 177.58-24.8L177.58-24.8 177.58-22.85Q177.58-22.35 177.08-22.35L177.08-22.35 172.38-22.35Q172.18-22.35 172.18-22.15L172.18-22.15 172.18-0.5Q172.18 0 171.68 0L171.68 0 169.13 0Q168.63 0 168.63-0.5L168.63-0.5 168.63-22.15Q168.63-22.35 168.43-22.35L168.43-22.35 165.78-22.35Q165.28-22.35 165.28-22.85L165.28-22.85 165.28-24.8Q165.28-25.3 165.78-25.3L165.78-25.3 168.43-25.3Q168.63-25.3 168.63-25.5L168.63-25.5 168.63-26.9Q168.63-31.35 170.31-33.25 171.98-35.15 176.13-35.15L176.13-35.15 177.18-35.15Q177.68-35.15 177.68-34.65L177.68-34.65 177.68-32.6Q177.68-32.1 177.18-32.1L177.18-32.1 176.28-32.1ZM212.68-34.65Q212.93-35 213.28-35L213.28-35 215.88-35Q216.38-35 216.38-34.5L216.38-34.5 216.38-0.5Q216.38 0 215.88 0L215.88 0 213.33 0Q212.83 0 212.83-0.5L212.83-0.5 212.83-27.7Q212.83-27.85 212.73-27.9 212.63-27.95 212.58-27.8L212.58-27.8 205.93-16.25Q205.68-15.9 205.33-15.9L205.33-15.9 204.78-15.9Q204.43-15.9 204.18-16.25L204.18-16.25 197.48-27.75Q197.43-27.9 197.33-27.85 197.23-27.8 197.23-27.65L197.23-27.65 197.23-0.5Q197.23 0 196.73 0L196.73 0 194.18 0Q193.68 0 193.68-0.5L193.68-0.5 193.68-34.5Q193.68-35 194.18-35L194.18-35 196.78-35Q197.13-35 197.38-34.65L197.38-34.65 204.93-21.8Q204.98-21.75 205.08-21.75 205.18-21.75 205.23-21.8L205.23-21.8 212.68-34.65ZM233.77 0.4Q229.22 0.4 226.45-2.25 223.67-4.9 223.67-9.3L223.67-9.3 223.67-25.7Q223.67-30.1 226.45-32.75 229.22-35.4 233.77-35.4L233.77-35.4Q236.77-35.4 239.05-34.2 241.32-33 242.6-30.85 243.87-28.7 243.87-25.9L243.87-25.9 243.87-24.5Q243.87-24 243.37-24L243.37-24 240.82-24Q240.32-24 240.32-24.5L240.32-24.5 240.32-25.9Q240.32-28.75 238.52-30.53 236.72-32.3 233.77-32.3L233.77-32.3Q230.82-32.3 229.02-30.53 227.22-28.75 227.22-25.8L227.22-25.8 227.22-9.2Q227.22-6.3 229.05-4.5 230.87-2.7 233.82-2.7L233.82-2.7Q236.77-2.7 238.55-4.4 240.32-6.1 240.32-9L240.32-9 240.32-14.45Q240.32-14.65 240.12-14.65L240.12-14.65 234.27-14.65Q233.77-14.65 233.77-15.15L233.77-15.15 233.77-17.25Q233.77-17.75 234.27-17.75L234.27-17.75 243.37-17.75Q243.87-17.75 243.87-17.25L243.87-17.25 243.87-9.45Q243.87-4.9 241.12-2.25 238.37 0.4 233.77 0.4L233.77 0.4ZM270.17-34.65Q270.42-35 270.77-35L270.77-35 273.37-35Q273.87-35 273.87-34.5L273.87-34.5 273.87-0.5Q273.87 0 273.37 0L273.37 0 270.82 0Q270.32 0 270.32-0.5L270.32-0.5 270.32-27.7Q270.32-27.85 270.22-27.9 270.12-27.95 270.07-27.8L270.07-27.8 263.42-16.25Q263.17-15.9 262.82-15.9L262.82-15.9 262.27-15.9Q261.92-15.9 261.67-16.25L261.67-16.25 254.97-27.75Q254.92-27.9 254.82-27.85 254.72-27.8 254.72-27.65L254.72-27.65 254.72-0.5Q254.72 0 254.22 0L254.22 0 251.67 0Q251.17 0 251.17-0.5L251.17-0.5 251.17-34.5Q251.17-35 251.67-35L251.67-35 254.27-35Q254.62-35 254.87-34.65L254.87-34.65 262.42-21.8Q262.47-21.75 262.57-21.75 262.67-21.75 262.72-21.8L262.72-21.8 270.17-34.65Z" opacity="1" transform="matrix(1,0,0,1,0,0)" fill="#ffffff" class="slogan-text-1" data-fill-palette-color="quaternary" id="text-1"></path></svg></g></svg></g></svg></g></svg></g><g transform="matrix(1,0,0,1,40.71326227438702,0)"><svg viewBox="0 0 131.7319166783831 63.14516253877941" height="63.14516253877941" width="131.7319166783831"><g><svg xmlns="http://www.w3.org/2000/svg" xmlns:xlink="http://www.w3.org/1999/xlink" version="1.1" x="0" y="0" viewBox="12.154 10.218519236403061 76.502 36.67092490831733" enable-background="new 0 0 100 57.639" xml:space="preserve" height="63.14516253877941" width="131.7319166783831" class="icon-icon-0" data-fill-palette-color="quaternary" id="icon-0"><path d="M32.153 31.198c1.472 0.157 2.765 0.401 2.765 0.401-2.938-1.552-2.862-7.125-2.862-7.125C32.57 13.68 25.16 14.244 25.16 14.244l-0.006 0.017-0.006-0.017c0 0-7.409-0.564-6.896 10.229 0 0 0.076 5.574-2.863 7.125 0 0 0.792-0.051 1.849-0.068-2.996 1.285-5.084 4.177-5.084 7.534 0 4.557 3.842 3.75 8.581 3.75h8.838c4.739 0 8.582 0.807 8.582-3.75C38.154 35.373 35.63 32.251 32.153 31.198zM27.138 33.36l-1.985 3.103-1.984-3.103c-1.444-0.313-2.557-0.962-3.007-1.76 1.164 0.098 2.151 0.304 2.406 0.706l-1.093-2.345c1.047 1.004 2.313 1.594 3.679 1.594 1.333 0 2.573-0.562 3.607-1.524l-0.763 1.524c0.255-0.404 1.216-0.513 2.343-0.486C30.162 32.107 28.891 32.978 27.138 33.36zM30.852 23.426c-0.112 1.428-0.491 2.745-1.063 3.85-1.042 2.009-2.73 3.314-4.636 3.314-2.904 0-5.304-3.035-5.681-6.969 0 0 2.292-0.365 3.662-0.886 0 0 2.482-0.797 5.512-2.896 0.016-0.01 0.031-0.021 0.046-0.032 0 0 0.054 0.076 0.131 0.204 0.263 0.433 0.827 1.725-0.239 2.316l1.941 0.236h0.035l0.355 0.063C30.912 22.9 30.891 23.166 30.852 23.426z" fill="#ffffff" data-fill-palette-color="quaternary"></path><path d="M82.652 31.198c1.474 0.157 2.765 0.401 2.765 0.401-2.938-1.552-2.86-7.125-2.86-7.125 0.512-10.794-6.896-10.229-6.896-10.229l-0.006 0.017-0.006-0.017c0 0-7.41-0.564-6.896 10.229 0 0 0.077 5.574-2.859 7.125 0 0 0.787-0.051 1.848-0.068-2.996 1.285-5.086 4.177-5.086 7.534 0 4.557 3.843 3.75 8.582 3.75h8.838c4.738 0 8.58 0.807 8.58-3.75C88.652 35.373 86.13 32.251 82.652 31.198zM77.637 33.36l-1.984 3.103-1.983-3.103c-1.444-0.313-2.558-0.962-3.006-1.76 1.163 0.098 2.149 0.304 2.403 0.706l-1.092-2.345c1.047 1.004 2.313 1.594 3.678 1.594 1.334 0 2.574-0.562 3.606-1.524l-0.764 1.524c0.257-0.404 1.218-0.513 2.345-0.486C80.661 32.107 79.391 32.978 77.637 33.36zM81.352 23.426c-0.11 1.428-0.49 2.745-1.063 3.85-1.042 2.009-2.729 3.314-4.636 3.314-2.904 0-5.305-3.035-5.682-6.969 0 0 2.293-0.365 3.662-0.886 0 0 2.483-0.797 5.514-2.896 0.016-0.01 0.03-0.021 0.045-0.032 0 0 0.054 0.076 0.134 0.204 0.262 0.433 0.825 1.725-0.24 2.316l1.94 0.236h0.035l0.354 0.063C81.411 22.9 81.391 23.166 81.352 23.426z" fill="#ffffff" data-fill-palette-color="quaternary"></path><path d="M59.369 31.939c1.886 0.202 3.539 0.516 3.539 0.516-3.762-1.988-3.665-9.126-3.665-9.126 0.657-13.825-8.832-13.104-8.832-13.104l-0.007 0.021-0.008-0.021c0 0-9.49-0.723-8.832 13.104 0 0 0.097 7.138-3.666 9.126 0 0 1.012-0.064 2.367-0.09-3.836 1.647-6.512 5.349-6.512 9.65 0 5.836 4.92 4.804 10.991 4.804h11.318c6.069 0 10.99 1.032 10.99-4.804C67.053 37.287 63.82 33.288 59.369 31.939zM52.945 34.71l-2.542 3.972-2.542-3.972c-1.848-0.403-3.275-1.232-3.851-2.255 1.49 0.125 2.754 0.387 3.08 0.901l-1.4-3.002c1.342 1.288 2.964 2.042 4.712 2.042 1.707 0 3.296-0.719 4.621-1.953l-0.979 1.953c0.328-0.517 1.559-0.656 3.002-0.622C56.816 33.104 55.189 34.221 52.945 34.71zM57.702 21.986c-0.144 1.83-0.627 3.517-1.361 4.931-1.336 2.571-3.495 4.244-5.937 4.244-3.721 0-6.795-3.886-7.278-8.926 0 0 2.938-0.467 4.691-1.133 0 0 3.178-1.021 7.061-3.708 0.019-0.013 0.037-0.025 0.058-0.039 0 0 0.068 0.096 0.168 0.261 0.338 0.554 1.06 2.209-0.306 2.967l2.484 0.303h0.046l0.455 0.081C57.779 21.312 57.751 21.653 57.702 21.986z" fill="#ffffff" data-fill-palette-color="quaternary"></path></svg></g></svg></g><g></g></svg></g></svg></g></svg></g></svg></g><defs></defs></svg><rect width="333.90454557049503" height="333.90454557049503" fill="none" stroke="none" visibility="hidden"></rect></g></svg></g></svg>